M48
;DRILL file {KiCad 4.0.1-stable} date 2016 March 22, Tuesday 17:13:31
;FORMAT={-:-/ absolute / inch / decimal}
FMAT,2
INCH,TZ
T1C0.012
T2C0.016
T3C0.030
T4C0.040
T5C0.043
T6C0.120
%
G90
G05
M72
T1
X5.395Y-2.885
X5.395Y-3.155
X5.42Y-2.915
X5.42Y-2.99
X5.42Y-3.015
X5.42Y-3.04
X5.42Y-3.125
X5.445Y-2.885
X5.445Y-3.155
T2
X5.06Y-3.04
X5.18Y-3.48
X5.27Y-2.93
X5.32Y-4.14
X5.34Y-3.31
X5.37Y-3.27
X5.52Y-3.16
X5.535Y-3.04
X5.57Y-2.85
X5.58Y-3.06
X5.6Y-3.01
X5.61Y-3.1
X5.635Y-2.97
X5.645Y-2.785
X5.65Y-3.18
X5.72Y-2.81
X5.81Y-3.16
X5.85Y-2.81
X5.88Y-2.97
X5.89Y-3.23
X5.9Y-2.79
X5.9Y-3.37
X5.94Y-3.19
X6.12Y-3.14
X6.245Y-3.085
T3
X5.54Y-3.395
X5.59Y-3.395
X5.64Y-3.395
X5.69Y-3.395
T4
X5.005Y-2.72
X5.105Y-2.72
X5.205Y-2.72
X5.305Y-2.72
X5.405Y-2.72
X5.505Y-2.72
X5.605Y-2.72
X5.705Y-2.72
X5.805Y-2.72
X5.905Y-2.72
X5.9953Y-3.767
X6.005Y-2.72
X6.0126Y-3.6685
X6.03Y-3.57
X6.0938Y-3.7843
X6.105Y-2.72
X6.1111Y-3.6858
X6.1285Y-3.5874
X6.205Y-2.72
X6.305Y-2.72
T5
X5.13Y-3.29
X5.1439Y-3.389
X5.57Y-4.08
X5.67Y-4.08
X6.11Y-3.39
X6.1274Y-3.2915
T6
X5.14Y-2.94
X6.16Y-2.94
T0
M30
