G04 #@! TF.FileFunction,Legend,Top*
%FSLAX46Y46*%
G04 Gerber Fmt 4.6, Leading zero omitted, Abs format (unit mm)*
G04 Created by KiCad (PCBNEW 4.0.1-stable) date 2016 March 22, Tuesday 17:13:29*
%MOMM*%
G01*
G04 APERTURE LIST*
%ADD10C,0.100000*%
%ADD11C,0.200000*%
%ADD12C,0.300000*%
%ADD13C,0.150000*%
%ADD14C,0.080000*%
%ADD15R,0.900000X1.000000*%
%ADD16R,1.150000X1.200000*%
%ADD17R,0.900000X1.300000*%
%ADD18R,1.300000X0.900000*%
%ADD19R,1.000000X0.900000*%
%ADD20R,2.127200X2.432000*%
%ADD21O,2.127200X2.432000*%
%ADD22R,1.300000X2.400000*%
%ADD23R,0.650000X1.100000*%
%ADD24R,0.900000X0.680000*%
%ADD25R,1.200100X1.200100*%
%ADD26R,1.000000X1.900000*%
%ADD27R,2.200000X1.500000*%
%ADD28O,1.517600X2.305000*%
%ADD29R,1.517600X2.305000*%
%ADD30R,1.900000X3.600000*%
%ADD31C,4.464000*%
%ADD32C,2.127200*%
%ADD33C,2.127200*%
%ADD34R,1.650000X1.400000*%
%ADD35O,2.398980X2.398980*%
%ADD36R,2.398980X2.398980*%
%ADD37C,2.398980*%
G04 APERTURE END LIST*
D10*
D11*
X159635917Y-79916229D02*
X159664489Y-80018804D01*
X159628144Y-80205781D01*
X159563228Y-80290183D01*
X159460654Y-80318755D01*
X159086700Y-80246066D01*
X159002298Y-80181149D01*
X158973726Y-80078575D01*
X159010071Y-79891597D01*
X159074987Y-79807195D01*
X159177561Y-79778624D01*
X159271050Y-79796796D01*
X159273677Y-80282410D01*
X159800781Y-79317642D02*
X159735865Y-79402044D01*
X159633290Y-79430616D01*
X158791895Y-79267065D01*
X159899415Y-78560648D02*
X159927987Y-78663223D01*
X159891643Y-78850200D01*
X159826726Y-78934602D01*
X159724152Y-78963174D01*
X159350198Y-78890485D01*
X159265796Y-78825568D01*
X159237224Y-78722994D01*
X159273569Y-78536016D01*
X159338485Y-78451614D01*
X159441059Y-78423043D01*
X159534549Y-78441215D01*
X159537175Y-78926829D01*
X160072052Y-77672509D02*
X160100624Y-77775084D01*
X160064279Y-77962061D01*
X159999363Y-78046463D01*
X159943533Y-78084121D01*
X159840958Y-78112693D01*
X159560493Y-78058176D01*
X159476091Y-77993259D01*
X159438433Y-77937429D01*
X159409861Y-77834855D01*
X159446206Y-77647877D01*
X159511122Y-77563475D01*
X159518895Y-77273925D02*
X159591584Y-76899972D01*
X159218944Y-77070089D02*
X160060339Y-77233640D01*
X160162913Y-77205068D01*
X160227830Y-77120666D01*
X160246002Y-77027178D01*
X160309605Y-76699968D02*
X159655187Y-76572762D01*
X159842163Y-76609107D02*
X159757761Y-76544190D01*
X159720103Y-76488360D01*
X159691531Y-76385786D01*
X159709704Y-76292296D01*
X160454984Y-75952061D02*
X160390067Y-76036464D01*
X160334237Y-76074122D01*
X160231663Y-76102693D01*
X159951197Y-76048176D01*
X159866795Y-75983260D01*
X159829137Y-75927430D01*
X159800565Y-75824855D01*
X159827824Y-75684622D01*
X159892740Y-75600220D01*
X159948570Y-75562562D01*
X160051145Y-75533990D01*
X160331610Y-75588507D01*
X160416012Y-75653424D01*
X160453670Y-75709254D01*
X160482242Y-75811828D01*
X160454984Y-75952061D01*
X159945943Y-75076949D02*
X160600362Y-75204155D01*
X160039432Y-75095121D02*
X160001774Y-75039291D01*
X159973202Y-74936716D01*
X160000460Y-74796483D01*
X160065377Y-74712081D01*
X160167951Y-74683509D01*
X160682137Y-74783457D01*
X160200356Y-73768112D02*
X160854774Y-73895318D01*
X160118580Y-74188810D02*
X160632766Y-74288757D01*
X160735341Y-74260186D01*
X160800257Y-74175784D01*
X160827516Y-74035550D01*
X160798944Y-73932976D01*
X160761286Y-73877146D01*
X160263958Y-73440903D02*
X160336648Y-73066950D01*
X159964008Y-73237068D02*
X160805403Y-73400618D01*
X160907977Y-73372047D01*
X160972894Y-73287645D01*
X160991066Y-73194156D01*
X160961181Y-72848774D02*
X161017011Y-72811116D01*
X161054669Y-72866947D01*
X160998839Y-72904605D01*
X160961181Y-72848774D01*
X161054669Y-72866947D01*
X161145530Y-72399506D02*
X160491112Y-72272300D01*
X160163903Y-72208697D02*
X160201561Y-72264527D01*
X160257391Y-72226869D01*
X160219734Y-72171039D01*
X160163903Y-72208697D01*
X160257391Y-72226869D01*
X160581973Y-71804858D02*
X161236392Y-71932065D01*
X160675462Y-71823031D02*
X160637804Y-71767201D01*
X160609232Y-71664626D01*
X160636490Y-71524393D01*
X160701407Y-71439991D01*
X160803981Y-71411419D01*
X161318167Y-71511367D01*
D10*
X151216316Y-90983055D02*
X150723912Y-90896231D01*
X151104570Y-90794114D01*
X150781795Y-90567962D01*
X151274199Y-90654786D01*
X151315543Y-90420307D02*
X150823140Y-90333483D01*
X151329306Y-90205143D02*
X151365157Y-90138934D01*
X151385829Y-90021695D01*
X151370651Y-89970665D01*
X151351337Y-89943082D01*
X151308576Y-89911366D01*
X151261681Y-89903097D01*
X151210651Y-89918276D01*
X151183069Y-89937589D01*
X151151352Y-89980350D01*
X151111366Y-90070007D01*
X151079649Y-90112768D01*
X151052068Y-90132081D01*
X151001037Y-90147260D01*
X150954142Y-90138991D01*
X150911381Y-90107274D01*
X150892067Y-90079692D01*
X150876888Y-90028662D01*
X150897560Y-89911423D01*
X150933412Y-89845215D01*
X150963712Y-89536258D02*
X150980250Y-89442467D01*
X151011967Y-89399706D01*
X151067131Y-89361080D01*
X151165057Y-89354170D01*
X151329192Y-89383112D01*
X151418849Y-89423097D01*
X151457475Y-89478261D01*
X151472654Y-89529291D01*
X151456116Y-89623082D01*
X151424399Y-89665844D01*
X151369235Y-89704470D01*
X151271309Y-89711381D01*
X151107174Y-89682439D01*
X151017518Y-89642453D01*
X150978891Y-89587289D01*
X150963712Y-89536258D01*
X150836675Y-93378234D02*
X150872526Y-93312024D01*
X150893199Y-93194786D01*
X150878020Y-93143756D01*
X150858706Y-93116173D01*
X150815945Y-93084457D01*
X150769050Y-93076188D01*
X150718020Y-93091366D01*
X150690438Y-93110680D01*
X150658721Y-93153441D01*
X150618736Y-93243098D01*
X150587018Y-93285859D01*
X150559437Y-93305172D01*
X150508407Y-93320351D01*
X150461511Y-93312082D01*
X150418750Y-93280365D01*
X150399436Y-93252783D01*
X150384257Y-93201753D01*
X150404929Y-93084513D01*
X150440781Y-93018305D01*
X150949665Y-92600322D02*
X150968979Y-92627905D01*
X150980023Y-92702382D01*
X150971754Y-92749277D01*
X150935903Y-92815487D01*
X150880738Y-92854114D01*
X150829708Y-92869292D01*
X150731783Y-92876202D01*
X150661439Y-92863799D01*
X150571782Y-92823813D01*
X150529021Y-92792096D01*
X150490395Y-92736932D01*
X150479350Y-92662453D01*
X150487619Y-92615558D01*
X150523470Y-92549350D01*
X150551053Y-92530036D01*
X151033771Y-92397560D02*
X150541367Y-92310736D01*
X151083385Y-92116187D02*
X150764801Y-92277604D01*
X150590981Y-92029363D02*
X150822741Y-92360350D01*
X150337652Y-96004435D02*
X150074233Y-96127225D01*
X150288038Y-96285808D02*
X149795635Y-96198984D01*
X149828710Y-96011402D01*
X149860428Y-95968641D01*
X149888010Y-95949328D01*
X149939040Y-95934149D01*
X150009383Y-95946552D01*
X150052144Y-95978270D01*
X150071458Y-96005851D01*
X150086636Y-96056881D01*
X150053561Y-96244464D01*
X150116937Y-95747925D02*
X150145879Y-95583791D01*
X150416207Y-95558927D02*
X150374862Y-95793405D01*
X149882459Y-95706580D01*
X149923803Y-95472103D01*
X150425836Y-95367210D02*
X150461687Y-95301001D01*
X150482359Y-95183762D01*
X150467181Y-95132732D01*
X150447867Y-95105149D01*
X150405106Y-95073433D01*
X150358210Y-95065164D01*
X150307180Y-95080343D01*
X150279598Y-95099656D01*
X150247881Y-95142417D01*
X150207896Y-95232074D01*
X150176179Y-95274835D01*
X150148597Y-95294148D01*
X150097567Y-95309327D01*
X150050671Y-95301058D01*
X150007910Y-95269341D01*
X149988596Y-95241759D01*
X149973417Y-95190729D01*
X149994090Y-95073490D01*
X150029941Y-95007282D01*
X150278182Y-94833461D02*
X150307123Y-94669327D01*
X150577452Y-94644463D02*
X150536107Y-94878941D01*
X150043703Y-94792117D01*
X150085048Y-94557639D01*
X150109855Y-94416952D02*
X150159469Y-94135579D01*
X150627066Y-94363089D02*
X150134662Y-94276265D01*
X157185316Y-94793055D02*
X156692912Y-94706231D01*
X157073570Y-94604114D01*
X156750795Y-94377962D01*
X157243199Y-94464786D01*
X156808677Y-94049692D02*
X156825215Y-93955901D01*
X156856933Y-93913140D01*
X156912097Y-93874513D01*
X157010023Y-93867604D01*
X157174158Y-93896545D01*
X157263814Y-93936530D01*
X157302441Y-93991695D01*
X157317619Y-94042725D01*
X157301081Y-94136516D01*
X157269365Y-94179277D01*
X157214201Y-94217904D01*
X157116275Y-94224814D01*
X156952140Y-94195873D01*
X156862483Y-94155886D01*
X156823857Y-94100722D01*
X156808677Y-94049692D01*
X157347920Y-93733769D02*
X157383771Y-93667559D01*
X157404443Y-93550321D01*
X157389265Y-93499291D01*
X157369951Y-93471708D01*
X157327190Y-93439992D01*
X157280295Y-93431723D01*
X157229265Y-93446901D01*
X157201683Y-93466215D01*
X157169966Y-93508976D01*
X157129980Y-93598633D01*
X157098263Y-93641394D01*
X157070681Y-93660707D01*
X157019651Y-93675886D01*
X156972756Y-93667617D01*
X156929995Y-93635900D01*
X156910681Y-93608318D01*
X156895502Y-93557288D01*
X156916174Y-93440049D01*
X156952026Y-93373840D01*
X157458192Y-93245499D02*
X156965788Y-93158675D01*
X156405646Y-96851753D02*
X156373929Y-96894514D01*
X156361526Y-96964857D01*
X156372570Y-97039336D01*
X156411197Y-97094500D01*
X156453958Y-97126216D01*
X156543615Y-97166203D01*
X156613959Y-97178606D01*
X156711884Y-97171696D01*
X156762914Y-97156517D01*
X156818079Y-97117891D01*
X156853930Y-97051681D01*
X156862199Y-97004786D01*
X156851155Y-96930309D01*
X156831841Y-96902726D01*
X156667707Y-96873784D01*
X156651169Y-96967576D01*
X156915947Y-96699964D02*
X156423543Y-96613140D01*
X156965561Y-96418591D01*
X156473157Y-96331767D01*
X157006905Y-96184112D02*
X156514502Y-96097288D01*
X156535174Y-95980050D01*
X156571026Y-95913840D01*
X156626190Y-95875214D01*
X156677220Y-95860035D01*
X156775146Y-95853125D01*
X156845490Y-95865528D01*
X156935146Y-95905515D01*
X156977907Y-95937231D01*
X157016534Y-95992395D01*
X157027578Y-96066874D01*
X157006905Y-96184112D01*
X157221584Y-91794991D02*
X157742930Y-91717680D01*
X157279467Y-91466722D01*
X157803531Y-91099769D02*
X157822844Y-91127352D01*
X157833888Y-91201829D01*
X157825619Y-91248725D01*
X157789768Y-91314934D01*
X157734604Y-91353561D01*
X157683574Y-91368739D01*
X157585648Y-91375650D01*
X157515304Y-91363246D01*
X157425648Y-91323260D01*
X157382887Y-91291544D01*
X157344260Y-91236379D01*
X157333215Y-91161901D01*
X157341484Y-91115005D01*
X157377336Y-91048797D01*
X157404919Y-91029483D01*
X157890355Y-90607365D02*
X157909668Y-90634948D01*
X157920712Y-90709425D01*
X157912443Y-90756321D01*
X157876593Y-90822530D01*
X157821428Y-90861157D01*
X157770398Y-90876335D01*
X157672472Y-90883246D01*
X157602129Y-90870842D01*
X157512472Y-90830856D01*
X157469711Y-90799140D01*
X157431084Y-90743975D01*
X157420039Y-90669497D01*
X157428308Y-90622601D01*
X157464160Y-90556393D01*
X157491743Y-90537079D01*
D12*
X143700572Y-107803143D02*
X144843429Y-107803143D01*
X141160572Y-107803143D02*
X142303429Y-107803143D01*
X141732000Y-108374571D02*
X141732000Y-107231714D01*
D13*
X129394000Y-67157523D02*
X129355905Y-67233714D01*
X129355905Y-67347999D01*
X129394000Y-67462285D01*
X129470190Y-67538476D01*
X129546381Y-67576571D01*
X129698762Y-67614666D01*
X129813048Y-67614666D01*
X129965429Y-67576571D01*
X130041619Y-67538476D01*
X130117810Y-67462285D01*
X130155905Y-67347999D01*
X130155905Y-67271809D01*
X130117810Y-67157523D01*
X130079714Y-67119428D01*
X129813048Y-67119428D01*
X129813048Y-67271809D01*
X130155905Y-66776571D02*
X129355905Y-66776571D01*
X130155905Y-66319428D01*
X129355905Y-66319428D01*
X130155905Y-65938476D02*
X129355905Y-65938476D01*
X129355905Y-65748000D01*
X129394000Y-65633714D01*
X129470190Y-65557523D01*
X129546381Y-65519428D01*
X129698762Y-65481333D01*
X129813048Y-65481333D01*
X129965429Y-65519428D01*
X130041619Y-65557523D01*
X130117810Y-65633714D01*
X130155905Y-65748000D01*
X130155905Y-65938476D01*
D11*
X125326790Y-70730751D02*
X125392941Y-71105915D01*
X125679865Y-70813555D02*
X124835744Y-70962396D01*
X124750222Y-71025830D01*
X124719865Y-71127890D01*
X124736402Y-71221681D01*
X124794285Y-71549951D02*
X125450824Y-71434185D01*
X125779093Y-71376303D02*
X125723928Y-71337676D01*
X125685302Y-71392840D01*
X125740466Y-71431467D01*
X125779093Y-71376303D01*
X125685302Y-71392840D01*
X125533514Y-71903141D02*
X124876975Y-72018906D01*
X125439722Y-71919679D02*
X125494887Y-71958305D01*
X125558320Y-72043828D01*
X125583128Y-72184515D01*
X125552770Y-72286575D01*
X125467248Y-72350009D01*
X124951396Y-72440967D01*
X125674086Y-72700366D02*
X125058892Y-73050610D01*
X125756776Y-73169323D02*
X125058892Y-73050610D01*
X124807876Y-72998163D01*
X124752712Y-72959537D01*
X124689278Y-72874015D01*
X125166388Y-73660253D02*
X126151196Y-73486605D01*
X126192541Y-73721083D01*
X126170452Y-73870039D01*
X126093199Y-73980368D01*
X126007677Y-74043802D01*
X125828364Y-74123773D01*
X125687676Y-74148580D01*
X125491825Y-74134760D01*
X125389765Y-74104403D01*
X125279436Y-74027149D01*
X125207733Y-73894731D01*
X125166388Y-73660253D01*
X125340037Y-74645061D02*
X125996575Y-74529295D01*
X125808993Y-74562371D02*
X125911053Y-74592729D01*
X125966218Y-74631355D01*
X126029651Y-74716877D01*
X126046189Y-74810670D01*
X125447533Y-75254704D02*
X126104072Y-75138938D01*
X126432341Y-75081056D02*
X126377176Y-75042429D01*
X126338550Y-75097594D01*
X126393714Y-75136220D01*
X126432341Y-75081056D01*
X126338550Y-75097594D01*
X126170224Y-75514103D02*
X125555030Y-75864346D01*
X126252913Y-75983060D01*
X125775574Y-76840886D02*
X125712140Y-76755364D01*
X125679064Y-76567781D01*
X125709422Y-76465721D01*
X125794944Y-76402287D01*
X126170109Y-76336135D01*
X126272169Y-76366493D01*
X126335603Y-76452015D01*
X126368679Y-76639598D01*
X126338321Y-76741658D01*
X126252799Y-76805092D01*
X126159007Y-76821630D01*
X125982526Y-76369211D01*
X125811367Y-77318111D02*
X126467906Y-77202345D01*
X126280324Y-77235421D02*
X126382384Y-77265779D01*
X126437549Y-77304405D01*
X126500982Y-77389927D01*
X126517520Y-77483719D01*
X127069051Y-78692018D02*
X127085589Y-78785810D01*
X127055231Y-78887870D01*
X127016605Y-78943035D01*
X126931083Y-79006468D01*
X126751769Y-79086439D01*
X126517291Y-79127784D01*
X126321439Y-79113965D01*
X126219379Y-79083607D01*
X126164215Y-79044980D01*
X126100781Y-78959458D01*
X126084243Y-78865666D01*
X126114601Y-78763606D01*
X126153228Y-78708441D01*
X126238750Y-78645008D01*
X126418063Y-78565037D01*
X126652542Y-78523692D01*
X126848393Y-78537511D01*
X126950453Y-78567869D01*
X127005618Y-78606496D01*
X127069051Y-78692018D01*
X126310338Y-79599458D02*
X126271711Y-79654623D01*
X126216547Y-79615996D01*
X126255173Y-79560831D01*
X126310338Y-79599458D01*
X126216547Y-79615996D01*
X127267506Y-79817512D02*
X127375003Y-80427156D01*
X126941955Y-80165037D01*
X126966762Y-80305725D01*
X126936405Y-80407785D01*
X126897778Y-80462950D01*
X126812255Y-80526383D01*
X126577777Y-80567728D01*
X126475717Y-80537370D01*
X126420552Y-80498744D01*
X126357119Y-80413222D01*
X126307505Y-80131847D01*
X126337863Y-80029787D01*
X126376489Y-79974623D01*
D13*
X160508905Y-67538476D02*
X159708905Y-67538476D01*
X159708905Y-67233714D01*
X159747000Y-67157523D01*
X159785095Y-67119428D01*
X159861286Y-67081333D01*
X159975571Y-67081333D01*
X160051762Y-67119428D01*
X160089857Y-67157523D01*
X160127952Y-67233714D01*
X160127952Y-67538476D01*
X160089857Y-66471809D02*
X160127952Y-66357523D01*
X160166048Y-66319428D01*
X160242238Y-66281333D01*
X160356524Y-66281333D01*
X160432714Y-66319428D01*
X160470810Y-66357523D01*
X160508905Y-66433714D01*
X160508905Y-66738476D01*
X159708905Y-66738476D01*
X159708905Y-66471809D01*
X159747000Y-66395619D01*
X159785095Y-66357523D01*
X159861286Y-66319428D01*
X159937476Y-66319428D01*
X160013667Y-66357523D01*
X160051762Y-66395619D01*
X160089857Y-66471809D01*
X160089857Y-66738476D01*
X159708905Y-66014666D02*
X159708905Y-65519428D01*
X160013667Y-65786095D01*
X160013667Y-65671809D01*
X160051762Y-65595619D01*
X160089857Y-65557523D01*
X160166048Y-65519428D01*
X160356524Y-65519428D01*
X160432714Y-65557523D01*
X160470810Y-65595619D01*
X160508905Y-65671809D01*
X160508905Y-65900381D01*
X160470810Y-65976571D01*
X160432714Y-66014666D01*
X157841905Y-67538476D02*
X157041905Y-67538476D01*
X157041905Y-67233714D01*
X157080000Y-67157523D01*
X157118095Y-67119428D01*
X157194286Y-67081333D01*
X157308571Y-67081333D01*
X157384762Y-67119428D01*
X157422857Y-67157523D01*
X157460952Y-67233714D01*
X157460952Y-67538476D01*
X157422857Y-66471809D02*
X157460952Y-66357523D01*
X157499048Y-66319428D01*
X157575238Y-66281333D01*
X157689524Y-66281333D01*
X157765714Y-66319428D01*
X157803810Y-66357523D01*
X157841905Y-66433714D01*
X157841905Y-66738476D01*
X157041905Y-66738476D01*
X157041905Y-66471809D01*
X157080000Y-66395619D01*
X157118095Y-66357523D01*
X157194286Y-66319428D01*
X157270476Y-66319428D01*
X157346667Y-66357523D01*
X157384762Y-66395619D01*
X157422857Y-66471809D01*
X157422857Y-66738476D01*
X157118095Y-65976571D02*
X157080000Y-65938476D01*
X157041905Y-65862285D01*
X157041905Y-65671809D01*
X157080000Y-65595619D01*
X157118095Y-65557523D01*
X157194286Y-65519428D01*
X157270476Y-65519428D01*
X157384762Y-65557523D01*
X157841905Y-66014666D01*
X157841905Y-65519428D01*
X155428905Y-67538476D02*
X154628905Y-67538476D01*
X154628905Y-67233714D01*
X154667000Y-67157523D01*
X154705095Y-67119428D01*
X154781286Y-67081333D01*
X154895571Y-67081333D01*
X154971762Y-67119428D01*
X155009857Y-67157523D01*
X155047952Y-67233714D01*
X155047952Y-67538476D01*
X155009857Y-66471809D02*
X155047952Y-66357523D01*
X155086048Y-66319428D01*
X155162238Y-66281333D01*
X155276524Y-66281333D01*
X155352714Y-66319428D01*
X155390810Y-66357523D01*
X155428905Y-66433714D01*
X155428905Y-66738476D01*
X154628905Y-66738476D01*
X154628905Y-66471809D01*
X154667000Y-66395619D01*
X154705095Y-66357523D01*
X154781286Y-66319428D01*
X154857476Y-66319428D01*
X154933667Y-66357523D01*
X154971762Y-66395619D01*
X155009857Y-66471809D01*
X155009857Y-66738476D01*
X155428905Y-65519428D02*
X155428905Y-65976571D01*
X155428905Y-65748000D02*
X154628905Y-65748000D01*
X154743190Y-65824190D01*
X154819381Y-65900381D01*
X154857476Y-65976571D01*
X153015905Y-67538476D02*
X152215905Y-67538476D01*
X152215905Y-67233714D01*
X152254000Y-67157523D01*
X152292095Y-67119428D01*
X152368286Y-67081333D01*
X152482571Y-67081333D01*
X152558762Y-67119428D01*
X152596857Y-67157523D01*
X152634952Y-67233714D01*
X152634952Y-67538476D01*
X152596857Y-66471809D02*
X152634952Y-66357523D01*
X152673048Y-66319428D01*
X152749238Y-66281333D01*
X152863524Y-66281333D01*
X152939714Y-66319428D01*
X152977810Y-66357523D01*
X153015905Y-66433714D01*
X153015905Y-66738476D01*
X152215905Y-66738476D01*
X152215905Y-66471809D01*
X152254000Y-66395619D01*
X152292095Y-66357523D01*
X152368286Y-66319428D01*
X152444476Y-66319428D01*
X152520667Y-66357523D01*
X152558762Y-66395619D01*
X152596857Y-66471809D01*
X152596857Y-66738476D01*
X152215905Y-65786095D02*
X152215905Y-65709904D01*
X152254000Y-65633714D01*
X152292095Y-65595619D01*
X152368286Y-65557523D01*
X152520667Y-65519428D01*
X152711143Y-65519428D01*
X152863524Y-65557523D01*
X152939714Y-65595619D01*
X152977810Y-65633714D01*
X153015905Y-65709904D01*
X153015905Y-65786095D01*
X152977810Y-65862285D01*
X152939714Y-65900381D01*
X152863524Y-65938476D01*
X152711143Y-65976571D01*
X152520667Y-65976571D01*
X152368286Y-65938476D01*
X152292095Y-65900381D01*
X152254000Y-65862285D01*
X152215905Y-65786095D01*
X150348905Y-67481333D02*
X149548905Y-67481333D01*
X149548905Y-67176571D01*
X149587000Y-67100380D01*
X149625095Y-67062285D01*
X149701286Y-67024190D01*
X149815571Y-67024190D01*
X149891762Y-67062285D01*
X149929857Y-67100380D01*
X149967952Y-67176571D01*
X149967952Y-67481333D01*
X150120333Y-66719428D02*
X150120333Y-66338476D01*
X150348905Y-66795619D02*
X149548905Y-66528952D01*
X150348905Y-66262285D01*
X149548905Y-66071809D02*
X149548905Y-65538476D01*
X150348905Y-65881333D01*
X147808905Y-67481333D02*
X147008905Y-67481333D01*
X147008905Y-67176571D01*
X147047000Y-67100380D01*
X147085095Y-67062285D01*
X147161286Y-67024190D01*
X147275571Y-67024190D01*
X147351762Y-67062285D01*
X147389857Y-67100380D01*
X147427952Y-67176571D01*
X147427952Y-67481333D01*
X147580333Y-66719428D02*
X147580333Y-66338476D01*
X147808905Y-66795619D02*
X147008905Y-66528952D01*
X147808905Y-66262285D01*
X147008905Y-65652762D02*
X147008905Y-65805143D01*
X147047000Y-65881333D01*
X147085095Y-65919428D01*
X147199381Y-65995619D01*
X147351762Y-66033714D01*
X147656524Y-66033714D01*
X147732714Y-65995619D01*
X147770810Y-65957524D01*
X147808905Y-65881333D01*
X147808905Y-65728952D01*
X147770810Y-65652762D01*
X147732714Y-65614666D01*
X147656524Y-65576571D01*
X147466048Y-65576571D01*
X147389857Y-65614666D01*
X147351762Y-65652762D01*
X147313667Y-65728952D01*
X147313667Y-65881333D01*
X147351762Y-65957524D01*
X147389857Y-65995619D01*
X147466048Y-66033714D01*
X145268905Y-67481333D02*
X144468905Y-67481333D01*
X144468905Y-67176571D01*
X144507000Y-67100380D01*
X144545095Y-67062285D01*
X144621286Y-67024190D01*
X144735571Y-67024190D01*
X144811762Y-67062285D01*
X144849857Y-67100380D01*
X144887952Y-67176571D01*
X144887952Y-67481333D01*
X145040333Y-66719428D02*
X145040333Y-66338476D01*
X145268905Y-66795619D02*
X144468905Y-66528952D01*
X145268905Y-66262285D01*
X144468905Y-65614666D02*
X144468905Y-65995619D01*
X144849857Y-66033714D01*
X144811762Y-65995619D01*
X144773667Y-65919428D01*
X144773667Y-65728952D01*
X144811762Y-65652762D01*
X144849857Y-65614666D01*
X144926048Y-65576571D01*
X145116524Y-65576571D01*
X145192714Y-65614666D01*
X145230810Y-65652762D01*
X145268905Y-65728952D01*
X145268905Y-65919428D01*
X145230810Y-65995619D01*
X145192714Y-66033714D01*
X142728905Y-67481333D02*
X141928905Y-67481333D01*
X141928905Y-67176571D01*
X141967000Y-67100380D01*
X142005095Y-67062285D01*
X142081286Y-67024190D01*
X142195571Y-67024190D01*
X142271762Y-67062285D01*
X142309857Y-67100380D01*
X142347952Y-67176571D01*
X142347952Y-67481333D01*
X142500333Y-66719428D02*
X142500333Y-66338476D01*
X142728905Y-66795619D02*
X141928905Y-66528952D01*
X142728905Y-66262285D01*
X142195571Y-65652762D02*
X142728905Y-65652762D01*
X141890810Y-65843238D02*
X142462238Y-66033714D01*
X142462238Y-65538476D01*
X140315905Y-67481333D02*
X139515905Y-67481333D01*
X139515905Y-67176571D01*
X139554000Y-67100380D01*
X139592095Y-67062285D01*
X139668286Y-67024190D01*
X139782571Y-67024190D01*
X139858762Y-67062285D01*
X139896857Y-67100380D01*
X139934952Y-67176571D01*
X139934952Y-67481333D01*
X140087333Y-66719428D02*
X140087333Y-66338476D01*
X140315905Y-66795619D02*
X139515905Y-66528952D01*
X140315905Y-66262285D01*
X139515905Y-66071809D02*
X139515905Y-65576571D01*
X139820667Y-65843238D01*
X139820667Y-65728952D01*
X139858762Y-65652762D01*
X139896857Y-65614666D01*
X139973048Y-65576571D01*
X140163524Y-65576571D01*
X140239714Y-65614666D01*
X140277810Y-65652762D01*
X140315905Y-65728952D01*
X140315905Y-65957524D01*
X140277810Y-66033714D01*
X140239714Y-66071809D01*
X137648905Y-67481333D02*
X136848905Y-67481333D01*
X136848905Y-67176571D01*
X136887000Y-67100380D01*
X136925095Y-67062285D01*
X137001286Y-67024190D01*
X137115571Y-67024190D01*
X137191762Y-67062285D01*
X137229857Y-67100380D01*
X137267952Y-67176571D01*
X137267952Y-67481333D01*
X137420333Y-66719428D02*
X137420333Y-66338476D01*
X137648905Y-66795619D02*
X136848905Y-66528952D01*
X137648905Y-66262285D01*
X136925095Y-66033714D02*
X136887000Y-65995619D01*
X136848905Y-65919428D01*
X136848905Y-65728952D01*
X136887000Y-65652762D01*
X136925095Y-65614666D01*
X137001286Y-65576571D01*
X137077476Y-65576571D01*
X137191762Y-65614666D01*
X137648905Y-66071809D01*
X137648905Y-65576571D01*
X135108905Y-67481333D02*
X134308905Y-67481333D01*
X134308905Y-67176571D01*
X134347000Y-67100380D01*
X134385095Y-67062285D01*
X134461286Y-67024190D01*
X134575571Y-67024190D01*
X134651762Y-67062285D01*
X134689857Y-67100380D01*
X134727952Y-67176571D01*
X134727952Y-67481333D01*
X134880333Y-66719428D02*
X134880333Y-66338476D01*
X135108905Y-66795619D02*
X134308905Y-66528952D01*
X135108905Y-66262285D01*
X135108905Y-65576571D02*
X135108905Y-66033714D01*
X135108905Y-65805143D02*
X134308905Y-65805143D01*
X134423190Y-65881333D01*
X134499381Y-65957524D01*
X134537476Y-66033714D01*
X132568905Y-67481333D02*
X131768905Y-67481333D01*
X131768905Y-67176571D01*
X131807000Y-67100380D01*
X131845095Y-67062285D01*
X131921286Y-67024190D01*
X132035571Y-67024190D01*
X132111762Y-67062285D01*
X132149857Y-67100380D01*
X132187952Y-67176571D01*
X132187952Y-67481333D01*
X132340333Y-66719428D02*
X132340333Y-66338476D01*
X132568905Y-66795619D02*
X131768905Y-66528952D01*
X132568905Y-66262285D01*
X131768905Y-65843238D02*
X131768905Y-65767047D01*
X131807000Y-65690857D01*
X131845095Y-65652762D01*
X131921286Y-65614666D01*
X132073667Y-65576571D01*
X132264143Y-65576571D01*
X132416524Y-65614666D01*
X132492714Y-65652762D01*
X132530810Y-65690857D01*
X132568905Y-65767047D01*
X132568905Y-65843238D01*
X132530810Y-65919428D01*
X132492714Y-65957524D01*
X132416524Y-65995619D01*
X132264143Y-66033714D01*
X132073667Y-66033714D01*
X131921286Y-65995619D01*
X131845095Y-65957524D01*
X131807000Y-65919428D01*
X131768905Y-65843238D01*
X126815905Y-66827380D02*
X126815905Y-67208333D01*
X127196857Y-67246428D01*
X127158762Y-67208333D01*
X127120667Y-67132142D01*
X127120667Y-66941666D01*
X127158762Y-66865476D01*
X127196857Y-66827380D01*
X127273048Y-66789285D01*
X127463524Y-66789285D01*
X127539714Y-66827380D01*
X127577810Y-66865476D01*
X127615905Y-66941666D01*
X127615905Y-67132142D01*
X127577810Y-67208333D01*
X127539714Y-67246428D01*
X126815905Y-66560714D02*
X127615905Y-66294047D01*
X126815905Y-66027380D01*
X151671000Y-102874000D02*
X151671000Y-103374000D01*
X152621000Y-103374000D02*
X152621000Y-102874000D01*
X133696000Y-100742000D02*
X133696000Y-101442000D01*
X132496000Y-101442000D02*
X132496000Y-100742000D01*
X151222000Y-103028000D02*
X151222000Y-103728000D01*
X150022000Y-103728000D02*
X150022000Y-103028000D01*
X151630000Y-106593000D02*
X150630000Y-106593000D01*
X150630000Y-105243000D02*
X151630000Y-105243000D01*
X143169000Y-80145000D02*
X143169000Y-81145000D01*
X141819000Y-81145000D02*
X141819000Y-80145000D01*
X147923513Y-89734567D02*
X147057487Y-89234567D01*
X147732487Y-88065433D02*
X148598513Y-88565433D01*
X136643487Y-88438433D02*
X137509513Y-87938433D01*
X138184513Y-89107567D02*
X137318487Y-89607567D01*
X141953000Y-74418000D02*
X141953000Y-73918000D01*
X141003000Y-73918000D02*
X141003000Y-74418000D01*
X142617000Y-90584000D02*
X142117000Y-90584000D01*
X142117000Y-91534000D02*
X142617000Y-91534000D01*
X137302240Y-102391160D02*
X137302240Y-102342900D01*
X136601200Y-99592180D02*
X137302240Y-99592180D01*
X137302240Y-99592180D02*
X137302240Y-99841100D01*
X137302240Y-102391160D02*
X137302240Y-102591820D01*
X137302240Y-102591820D02*
X136601200Y-102591820D01*
X139227000Y-74137000D02*
X139227000Y-73437000D01*
X140427000Y-73437000D02*
X140427000Y-74137000D01*
X134782000Y-74010000D02*
X134782000Y-73310000D01*
X135982000Y-73310000D02*
X135982000Y-74010000D01*
X152786000Y-73617000D02*
X152671000Y-73617000D01*
X152786000Y-77767000D02*
X152671000Y-77767000D01*
X143886000Y-77767000D02*
X144001000Y-77767000D01*
X143886000Y-73617000D02*
X144001000Y-73617000D01*
X152786000Y-73617000D02*
X152786000Y-77767000D01*
X143886000Y-73617000D02*
X143886000Y-77767000D01*
X152671000Y-73617000D02*
X152671000Y-72242000D01*
X140121000Y-87333000D02*
X140121000Y-87783000D01*
X145571000Y-86233000D02*
G75*
G03X145571000Y-86233000I-2950000J0D01*
G01*
X140121000Y-85133000D02*
X140121000Y-84683000D01*
X158750000Y-74676000D02*
G75*
G03X158750000Y-74676000I-2286000J0D01*
G01*
X132842000Y-74676000D02*
G75*
G03X132842000Y-74676000I-2286000J0D01*
G01*
X151690761Y-91708173D02*
X152131827Y-89206761D01*
X152131827Y-89206761D02*
X154633239Y-89647827D01*
X150219522Y-92738345D02*
X150021042Y-93863981D01*
X150021042Y-93863981D02*
X151271748Y-94084514D01*
X150440055Y-91487639D02*
X150219522Y-92738345D01*
X151690761Y-91708173D02*
X150440055Y-91487639D01*
X151690761Y-91708173D02*
X150808628Y-96710996D01*
X150808628Y-96710996D02*
X155811452Y-97593129D01*
X155811452Y-97593129D02*
X156693584Y-92590305D01*
X157134651Y-90088894D02*
X154633239Y-89647827D01*
X156693584Y-92590305D02*
X157134651Y-90088894D01*
X139948920Y-101031040D02*
X145547080Y-101031040D01*
X145348960Y-100533200D02*
X145348960Y-101031040D01*
X140147040Y-101031040D02*
X140147040Y-100533200D01*
X142748000Y-100533200D02*
X142748000Y-101031040D01*
X145547080Y-106332020D02*
X139948920Y-106332020D01*
X145547080Y-100533200D02*
X139948920Y-100533200D01*
X139948920Y-100533200D02*
X139948920Y-106730800D01*
X139948920Y-106730800D02*
X145547080Y-106730800D01*
X145547080Y-106730800D02*
X145547080Y-100533200D01*
X128292659Y-87957464D02*
X127513546Y-82413785D01*
X127048123Y-82679262D02*
X127541119Y-82609976D01*
X128265086Y-87761272D02*
X127772091Y-87830558D01*
X127410107Y-85254910D02*
X127903102Y-85185624D01*
X132762937Y-81676031D02*
X133542050Y-87219710D01*
X127020551Y-82483071D02*
X127799664Y-88026750D01*
X127799664Y-88026750D02*
X133936949Y-87164210D01*
X133936949Y-87164210D02*
X133157836Y-81620531D01*
X133157836Y-81620531D02*
X127020551Y-82483071D01*
X158462034Y-82550390D02*
X157489924Y-88063502D01*
X158014603Y-87954841D02*
X157524327Y-87868392D01*
X158427631Y-82745501D02*
X158917907Y-82831950D01*
X158466255Y-85393395D02*
X157975979Y-85306946D01*
X152269477Y-87142996D02*
X153241588Y-81629885D01*
X157980200Y-88149951D02*
X158952311Y-82636839D01*
X158952311Y-82636839D02*
X152848866Y-81560637D01*
X152848866Y-81560637D02*
X151876756Y-87073749D01*
X151876756Y-87073749D02*
X157980200Y-88149951D01*
D14*
X153336667Y-103031952D02*
X153336667Y-103317667D01*
X153317619Y-103374810D01*
X153279524Y-103412905D01*
X153222381Y-103431952D01*
X153184286Y-103431952D01*
X153527143Y-103431952D02*
X153527143Y-103031952D01*
X153679524Y-103031952D01*
X153717619Y-103051000D01*
X153736667Y-103070048D01*
X153755715Y-103108143D01*
X153755715Y-103165286D01*
X153736667Y-103203381D01*
X153717619Y-103222429D01*
X153679524Y-103241476D01*
X153527143Y-103241476D01*
X154136667Y-103431952D02*
X153908095Y-103431952D01*
X154022381Y-103431952D02*
X154022381Y-103031952D01*
X153984286Y-103089095D01*
X153946191Y-103127190D01*
X153908095Y-103146238D01*
X134426334Y-101361857D02*
X134407286Y-101380905D01*
X134350143Y-101399952D01*
X134312048Y-101399952D01*
X134254905Y-101380905D01*
X134216810Y-101342810D01*
X134197762Y-101304714D01*
X134178714Y-101228524D01*
X134178714Y-101171381D01*
X134197762Y-101095190D01*
X134216810Y-101057095D01*
X134254905Y-101019000D01*
X134312048Y-100999952D01*
X134350143Y-100999952D01*
X134407286Y-101019000D01*
X134426334Y-101038048D01*
X134807286Y-101399952D02*
X134578714Y-101399952D01*
X134693000Y-101399952D02*
X134693000Y-100999952D01*
X134654905Y-101057095D01*
X134616810Y-101095190D01*
X134578714Y-101114238D01*
X150555334Y-101488857D02*
X150536286Y-101507905D01*
X150479143Y-101526952D01*
X150441048Y-101526952D01*
X150383905Y-101507905D01*
X150345810Y-101469810D01*
X150326762Y-101431714D01*
X150307714Y-101355524D01*
X150307714Y-101298381D01*
X150326762Y-101222190D01*
X150345810Y-101184095D01*
X150383905Y-101146000D01*
X150441048Y-101126952D01*
X150479143Y-101126952D01*
X150536286Y-101146000D01*
X150555334Y-101165048D01*
X150707714Y-101165048D02*
X150726762Y-101146000D01*
X150764857Y-101126952D01*
X150860095Y-101126952D01*
X150898191Y-101146000D01*
X150917238Y-101165048D01*
X150936286Y-101203143D01*
X150936286Y-101241238D01*
X150917238Y-101298381D01*
X150688667Y-101526952D01*
X150936286Y-101526952D01*
X153095334Y-106098952D02*
X152962000Y-105908476D01*
X152866762Y-106098952D02*
X152866762Y-105698952D01*
X153019143Y-105698952D01*
X153057238Y-105718000D01*
X153076286Y-105737048D01*
X153095334Y-105775143D01*
X153095334Y-105832286D01*
X153076286Y-105870381D01*
X153057238Y-105889429D01*
X153019143Y-105908476D01*
X152866762Y-105908476D01*
X153476286Y-106098952D02*
X153247714Y-106098952D01*
X153362000Y-106098952D02*
X153362000Y-105698952D01*
X153323905Y-105756095D01*
X153285810Y-105794190D01*
X153247714Y-105813238D01*
X141157334Y-80825952D02*
X141024000Y-80635476D01*
X140928762Y-80825952D02*
X140928762Y-80425952D01*
X141081143Y-80425952D01*
X141119238Y-80445000D01*
X141138286Y-80464048D01*
X141157334Y-80502143D01*
X141157334Y-80559286D01*
X141138286Y-80597381D01*
X141119238Y-80616429D01*
X141081143Y-80635476D01*
X140928762Y-80635476D01*
X141309714Y-80464048D02*
X141328762Y-80445000D01*
X141366857Y-80425952D01*
X141462095Y-80425952D01*
X141500191Y-80445000D01*
X141519238Y-80464048D01*
X141538286Y-80502143D01*
X141538286Y-80540238D01*
X141519238Y-80597381D01*
X141290667Y-80825952D01*
X141538286Y-80825952D01*
X148629790Y-87377928D02*
X148609557Y-87146304D01*
X148431840Y-87263642D02*
X148631840Y-86917232D01*
X148763806Y-86993422D01*
X148787273Y-87028966D01*
X148794245Y-87054986D01*
X148791694Y-87097501D01*
X148763123Y-87146988D01*
X148727579Y-87170456D01*
X148701559Y-87177428D01*
X148659044Y-87174875D01*
X148527078Y-87098685D01*
X148945259Y-87098184D02*
X149159704Y-87221994D01*
X148968043Y-87287293D01*
X149017530Y-87315864D01*
X149040998Y-87351408D01*
X149047969Y-87377428D01*
X149045418Y-87419943D01*
X148997799Y-87502422D01*
X148962255Y-87525889D01*
X148936236Y-87532861D01*
X148893720Y-87530309D01*
X148794747Y-87473166D01*
X148771278Y-87437623D01*
X148764307Y-87411603D01*
X138396742Y-90608490D02*
X138186033Y-90510200D01*
X138198792Y-90722776D02*
X137998792Y-90376366D01*
X138130758Y-90300175D01*
X138173273Y-90297624D01*
X138199293Y-90304596D01*
X138234837Y-90328063D01*
X138263409Y-90377550D01*
X138265960Y-90420066D01*
X138258988Y-90446086D01*
X138235520Y-90481628D01*
X138103554Y-90557819D01*
X138560331Y-90206122D02*
X138693664Y-90437062D01*
X138401662Y-90121775D02*
X138462040Y-90416830D01*
X138676485Y-90293020D01*
X141144667Y-72424952D02*
X141144667Y-72710667D01*
X141125619Y-72767810D01*
X141087524Y-72805905D01*
X141030381Y-72824952D01*
X140992286Y-72824952D01*
X141335143Y-72824952D02*
X141335143Y-72424952D01*
X141487524Y-72424952D01*
X141525619Y-72444000D01*
X141544667Y-72463048D01*
X141563715Y-72501143D01*
X141563715Y-72558286D01*
X141544667Y-72596381D01*
X141525619Y-72615429D01*
X141487524Y-72634476D01*
X141335143Y-72634476D01*
X141716095Y-72463048D02*
X141735143Y-72444000D01*
X141773238Y-72424952D01*
X141868476Y-72424952D01*
X141906572Y-72444000D01*
X141925619Y-72463048D01*
X141944667Y-72501143D01*
X141944667Y-72539238D01*
X141925619Y-72596381D01*
X141697048Y-72824952D01*
X141944667Y-72824952D01*
X143938667Y-90966952D02*
X143938667Y-91252667D01*
X143919619Y-91309810D01*
X143881524Y-91347905D01*
X143824381Y-91366952D01*
X143786286Y-91366952D01*
X144129143Y-91366952D02*
X144129143Y-90966952D01*
X144281524Y-90966952D01*
X144319619Y-90986000D01*
X144338667Y-91005048D01*
X144357715Y-91043143D01*
X144357715Y-91100286D01*
X144338667Y-91138381D01*
X144319619Y-91157429D01*
X144281524Y-91176476D01*
X144129143Y-91176476D01*
X144491048Y-90966952D02*
X144738667Y-90966952D01*
X144605334Y-91119333D01*
X144662476Y-91119333D01*
X144700572Y-91138381D01*
X144719619Y-91157429D01*
X144738667Y-91195524D01*
X144738667Y-91290762D01*
X144719619Y-91328857D01*
X144700572Y-91347905D01*
X144662476Y-91366952D01*
X144548191Y-91366952D01*
X144510095Y-91347905D01*
X144491048Y-91328857D01*
X161629762Y-69268952D02*
X161629762Y-68868952D01*
X161782143Y-68868952D01*
X161820238Y-68888000D01*
X161839286Y-68907048D01*
X161858334Y-68945143D01*
X161858334Y-69002286D01*
X161839286Y-69040381D01*
X161820238Y-69059429D01*
X161782143Y-69078476D01*
X161629762Y-69078476D01*
X162010714Y-68907048D02*
X162029762Y-68888000D01*
X162067857Y-68868952D01*
X162163095Y-68868952D01*
X162201191Y-68888000D01*
X162220238Y-68907048D01*
X162239286Y-68945143D01*
X162239286Y-68983238D01*
X162220238Y-69040381D01*
X161991667Y-69268952D01*
X162239286Y-69268952D01*
X135966238Y-78520952D02*
X135966238Y-78844762D01*
X135985286Y-78882857D01*
X136004333Y-78901905D01*
X136042429Y-78920952D01*
X136118619Y-78920952D01*
X136156714Y-78901905D01*
X136175762Y-78882857D01*
X136194810Y-78844762D01*
X136194810Y-78520952D01*
X136366238Y-78559048D02*
X136385286Y-78540000D01*
X136423381Y-78520952D01*
X136518619Y-78520952D01*
X136556715Y-78540000D01*
X136575762Y-78559048D01*
X136594810Y-78597143D01*
X136594810Y-78635238D01*
X136575762Y-78692381D01*
X136347191Y-78920952D01*
X136594810Y-78920952D01*
X138772905Y-100041048D02*
X138734810Y-100022000D01*
X138696714Y-99983905D01*
X138639571Y-99926762D01*
X138601476Y-99907714D01*
X138563381Y-99907714D01*
X138582429Y-100002952D02*
X138544333Y-99983905D01*
X138506238Y-99945810D01*
X138487190Y-99869619D01*
X138487190Y-99736286D01*
X138506238Y-99660095D01*
X138544333Y-99622000D01*
X138582429Y-99602952D01*
X138658619Y-99602952D01*
X138696714Y-99622000D01*
X138734810Y-99660095D01*
X138753857Y-99736286D01*
X138753857Y-99869619D01*
X138734810Y-99945810D01*
X138696714Y-99983905D01*
X138658619Y-100002952D01*
X138582429Y-100002952D01*
X139134810Y-100002952D02*
X138906238Y-100002952D01*
X139020524Y-100002952D02*
X139020524Y-99602952D01*
X138982429Y-99660095D01*
X138944334Y-99698190D01*
X138906238Y-99717238D01*
X139760334Y-71897857D02*
X139741286Y-71916905D01*
X139684143Y-71935952D01*
X139646048Y-71935952D01*
X139588905Y-71916905D01*
X139550810Y-71878810D01*
X139531762Y-71840714D01*
X139512714Y-71764524D01*
X139512714Y-71707381D01*
X139531762Y-71631190D01*
X139550810Y-71593095D01*
X139588905Y-71555000D01*
X139646048Y-71535952D01*
X139684143Y-71535952D01*
X139741286Y-71555000D01*
X139760334Y-71574048D01*
X139893667Y-71535952D02*
X140141286Y-71535952D01*
X140007953Y-71688333D01*
X140065095Y-71688333D01*
X140103191Y-71707381D01*
X140122238Y-71726429D01*
X140141286Y-71764524D01*
X140141286Y-71859762D01*
X140122238Y-71897857D01*
X140103191Y-71916905D01*
X140065095Y-71935952D01*
X139950810Y-71935952D01*
X139912714Y-71916905D01*
X139893667Y-71897857D01*
X135315334Y-71897857D02*
X135296286Y-71916905D01*
X135239143Y-71935952D01*
X135201048Y-71935952D01*
X135143905Y-71916905D01*
X135105810Y-71878810D01*
X135086762Y-71840714D01*
X135067714Y-71764524D01*
X135067714Y-71707381D01*
X135086762Y-71631190D01*
X135105810Y-71593095D01*
X135143905Y-71555000D01*
X135201048Y-71535952D01*
X135239143Y-71535952D01*
X135296286Y-71555000D01*
X135315334Y-71574048D01*
X135658191Y-71669286D02*
X135658191Y-71935952D01*
X135562953Y-71516905D02*
X135467714Y-71802619D01*
X135715334Y-71802619D01*
X152136524Y-80063952D02*
X152136524Y-79663952D01*
X152555572Y-80025857D02*
X152536524Y-80044905D01*
X152479381Y-80063952D01*
X152441286Y-80063952D01*
X152384143Y-80044905D01*
X152346048Y-80006810D01*
X152327000Y-79968714D01*
X152307952Y-79892524D01*
X152307952Y-79835381D01*
X152327000Y-79759190D01*
X152346048Y-79721095D01*
X152384143Y-79683000D01*
X152441286Y-79663952D01*
X152479381Y-79663952D01*
X152536524Y-79683000D01*
X152555572Y-79702048D01*
X152936524Y-80063952D02*
X152707952Y-80063952D01*
X152822238Y-80063952D02*
X152822238Y-79663952D01*
X152784143Y-79721095D01*
X152746048Y-79759190D01*
X152707952Y-79778238D01*
X142468667Y-93125905D02*
X142525810Y-93144952D01*
X142621048Y-93144952D01*
X142659144Y-93125905D01*
X142678191Y-93106857D01*
X142697239Y-93068762D01*
X142697239Y-93030667D01*
X142678191Y-92992571D01*
X142659144Y-92973524D01*
X142621048Y-92954476D01*
X142544858Y-92935429D01*
X142506763Y-92916381D01*
X142487715Y-92897333D01*
X142468667Y-92859238D01*
X142468667Y-92821143D01*
X142487715Y-92783048D01*
X142506763Y-92764000D01*
X142544858Y-92744952D01*
X142640096Y-92744952D01*
X142697239Y-92764000D01*
X142830572Y-92744952D02*
X142925810Y-93144952D01*
X143002000Y-92859238D01*
X143078191Y-93144952D01*
X143173429Y-92744952D01*
X143535334Y-93144952D02*
X143306762Y-93144952D01*
X143421048Y-93144952D02*
X143421048Y-92744952D01*
X143382953Y-92802095D01*
X143344858Y-92840190D01*
X143306762Y-92859238D01*
X138388762Y-86286952D02*
X138388762Y-85886952D01*
X138484000Y-85886952D01*
X138541143Y-85906000D01*
X138579238Y-85944095D01*
X138598286Y-85982190D01*
X138617334Y-86058381D01*
X138617334Y-86115524D01*
X138598286Y-86191714D01*
X138579238Y-86229810D01*
X138541143Y-86267905D01*
X138484000Y-86286952D01*
X138388762Y-86286952D01*
X138769714Y-85925048D02*
X138788762Y-85906000D01*
X138826857Y-85886952D01*
X138922095Y-85886952D01*
X138960191Y-85906000D01*
X138979238Y-85925048D01*
X138998286Y-85963143D01*
X138998286Y-86001238D01*
X138979238Y-86058381D01*
X138750667Y-86286952D01*
X138998286Y-86286952D01*
X131184667Y-104873429D02*
X131051334Y-104873429D01*
X131051334Y-105082952D02*
X131051334Y-104682952D01*
X131241810Y-104682952D01*
X131603715Y-105082952D02*
X131375143Y-105082952D01*
X131489429Y-105082952D02*
X131489429Y-104682952D01*
X131451334Y-104740095D01*
X131413239Y-104778190D01*
X131375143Y-104797238D01*
X156804921Y-88795946D02*
X156874381Y-88402023D01*
X157024447Y-88428484D01*
X157058655Y-88453858D01*
X157074106Y-88475924D01*
X157086250Y-88516748D01*
X157076327Y-88573023D01*
X157050953Y-88607231D01*
X157028887Y-88622682D01*
X156988063Y-88634825D01*
X156837997Y-88608364D01*
X157230787Y-88464867D02*
X157474645Y-88507866D01*
X157316877Y-88634779D01*
X157373150Y-88644702D01*
X157407360Y-88670076D01*
X157422810Y-88692142D01*
X157434953Y-88732966D01*
X157418416Y-88826757D01*
X157393042Y-88860965D01*
X157370977Y-88876416D01*
X157330152Y-88888559D01*
X157217603Y-88868713D01*
X157183393Y-88843340D01*
X157167943Y-88821274D01*
X146770762Y-102415952D02*
X146770762Y-102015952D01*
X146866000Y-102015952D01*
X146923143Y-102035000D01*
X146961238Y-102073095D01*
X146980286Y-102111190D01*
X146999334Y-102187381D01*
X146999334Y-102244524D01*
X146980286Y-102320714D01*
X146961238Y-102358810D01*
X146923143Y-102396905D01*
X146866000Y-102415952D01*
X146770762Y-102415952D01*
X147380286Y-102415952D02*
X147151714Y-102415952D01*
X147266000Y-102415952D02*
X147266000Y-102015952D01*
X147227905Y-102073095D01*
X147189810Y-102111190D01*
X147151714Y-102130238D01*
X128318718Y-93805498D02*
X128363784Y-94126157D01*
X128387948Y-94161230D01*
X128409461Y-94177442D01*
X128449837Y-94191002D01*
X128525286Y-94180398D01*
X128560359Y-94156235D01*
X128576571Y-94134721D01*
X128590132Y-94094346D01*
X128545066Y-93773687D01*
X128996842Y-94114125D02*
X128770495Y-94145936D01*
X128883669Y-94130031D02*
X128827999Y-93733924D01*
X128798228Y-93795812D01*
X128765805Y-93838838D01*
X128730731Y-93863003D01*
X142071762Y-100002952D02*
X142071762Y-99602952D01*
X142224143Y-99602952D01*
X142262238Y-99622000D01*
X142281286Y-99641048D01*
X142300334Y-99679143D01*
X142300334Y-99736286D01*
X142281286Y-99774381D01*
X142262238Y-99793429D01*
X142224143Y-99812476D01*
X142071762Y-99812476D01*
X142681286Y-100002952D02*
X142452714Y-100002952D01*
X142567000Y-100002952D02*
X142567000Y-99602952D01*
X142528905Y-99660095D01*
X142490810Y-99698190D01*
X142452714Y-99717238D01*
X129653819Y-81119280D02*
X129598150Y-80723173D01*
X129749048Y-80701966D01*
X129789423Y-80715526D01*
X129810937Y-80731738D01*
X129835101Y-80766811D01*
X129843054Y-80823398D01*
X129829493Y-80863774D01*
X129813281Y-80885287D01*
X129778208Y-80909451D01*
X129627310Y-80930658D01*
X130182574Y-80775682D02*
X130219687Y-81039753D01*
X130067056Y-80638038D02*
X130012507Y-80934226D01*
X130257717Y-80899764D01*
X155887825Y-81279935D02*
X155957285Y-80886012D01*
X156107351Y-80912473D01*
X156141559Y-80937847D01*
X156157010Y-80959913D01*
X156169154Y-81000737D01*
X156159231Y-81057012D01*
X156133857Y-81091220D01*
X156111791Y-81106671D01*
X156070967Y-81118814D01*
X155920901Y-81092353D01*
X156538790Y-80988547D02*
X156351208Y-80955472D01*
X156299373Y-81139747D01*
X156321439Y-81124296D01*
X156362263Y-81112153D01*
X156456054Y-81128691D01*
X156490264Y-81154065D01*
X156505714Y-81176131D01*
X156517857Y-81216955D01*
X156501320Y-81310746D01*
X156475946Y-81344954D01*
X156453881Y-81360405D01*
X156413056Y-81372548D01*
X156319265Y-81356010D01*
X156285056Y-81330637D01*
X156269605Y-81308571D01*
%LPC*%
D15*
X152146000Y-103674000D03*
X152146000Y-102574000D03*
D16*
X133096000Y-100342000D03*
X133096000Y-101842000D03*
X150622000Y-102628000D03*
X150622000Y-104128000D03*
D17*
X150380000Y-105918000D03*
X151880000Y-105918000D03*
D18*
X142494000Y-81395000D03*
X142494000Y-79895000D03*
D10*
G36*
X146463770Y-88862917D02*
X147113770Y-87737083D01*
X147893192Y-88187083D01*
X147243192Y-89312917D01*
X146463770Y-88862917D01*
X146463770Y-88862917D01*
G37*
G36*
X147762808Y-89612917D02*
X148412808Y-88487083D01*
X149192230Y-88937083D01*
X148542230Y-90062917D01*
X147762808Y-89612917D01*
X147762808Y-89612917D01*
G37*
G36*
X138128230Y-87610083D02*
X138778230Y-88735917D01*
X137998808Y-89185917D01*
X137348808Y-88060083D01*
X138128230Y-87610083D01*
X138128230Y-87610083D01*
G37*
G36*
X136829192Y-88360083D02*
X137479192Y-89485917D01*
X136699770Y-89935917D01*
X136049770Y-88810083D01*
X136829192Y-88360083D01*
X136829192Y-88360083D01*
G37*
D15*
X141478000Y-73618000D03*
X141478000Y-74718000D03*
D19*
X141817000Y-91059000D03*
X142917000Y-91059000D03*
D20*
X127127000Y-69088000D03*
D21*
X129667000Y-69088000D03*
X132207000Y-69088000D03*
X134747000Y-69088000D03*
X137287000Y-69088000D03*
X139827000Y-69088000D03*
X142367000Y-69088000D03*
X144907000Y-69088000D03*
X147447000Y-69088000D03*
X149987000Y-69088000D03*
X152527000Y-69088000D03*
X155067000Y-69088000D03*
X157607000Y-69088000D03*
X160147000Y-69088000D03*
D22*
X137668000Y-76581000D03*
D23*
X137418000Y-77931000D03*
X137418000Y-75231000D03*
X137918000Y-77931000D03*
X137918000Y-75231000D03*
D24*
X138618000Y-75331000D03*
X138618000Y-75831000D03*
X138618000Y-76331000D03*
X138618000Y-76831000D03*
X138618000Y-77331000D03*
X138618000Y-77831000D03*
X136718000Y-75331000D03*
X136718000Y-75831000D03*
X136718000Y-76331000D03*
X136718000Y-76831000D03*
X136718000Y-77331000D03*
X136718000Y-77831000D03*
D25*
X135651240Y-100142000D03*
X135651240Y-102042000D03*
X137650220Y-101092000D03*
D16*
X139827000Y-74537000D03*
X139827000Y-73037000D03*
X135382000Y-74410000D03*
X135382000Y-72910000D03*
D26*
X152146000Y-72992000D03*
X150876000Y-72992000D03*
X149606000Y-72992000D03*
X148336000Y-72992000D03*
X147066000Y-72992000D03*
X145796000Y-72992000D03*
X144526000Y-72992000D03*
X144526000Y-78392000D03*
X145796000Y-78392000D03*
X147066000Y-78392000D03*
X148336000Y-78392000D03*
X149606000Y-78392000D03*
X150876000Y-78392000D03*
X152146000Y-78392000D03*
D27*
X139775000Y-94162000D03*
X145975000Y-94162000D03*
X145975000Y-97862000D03*
X139775000Y-97862000D03*
D28*
X140716000Y-86233000D03*
D29*
X141986000Y-86233000D03*
D28*
X143256000Y-86233000D03*
X144526000Y-86233000D03*
D30*
X133155000Y-105029000D03*
X137355000Y-105029000D03*
D31*
X156464000Y-74676000D03*
X130556000Y-74676000D03*
D32*
X153162000Y-90678000D03*
D33*
X155663412Y-91119066D02*
X155663412Y-91119066D01*
X152720934Y-93179412D02*
X152720934Y-93179412D01*
X155222345Y-93620478D02*
X155222345Y-93620478D01*
X152279867Y-95680823D02*
X152279867Y-95680823D01*
X154781279Y-96121890D02*
X154781279Y-96121890D01*
D34*
X148336000Y-105494000D03*
X148336000Y-103294000D03*
D10*
G36*
X134524234Y-97380213D02*
X134169342Y-94855029D01*
X135506204Y-94667145D01*
X135861096Y-97192329D01*
X134524234Y-97380213D01*
X134524234Y-97380213D01*
G37*
G36*
X129969000Y-98020410D02*
X129614108Y-95495226D01*
X130950970Y-95307342D01*
X131305862Y-97832526D01*
X129969000Y-98020410D01*
X129969000Y-98020410D01*
G37*
G36*
X130300604Y-92116806D02*
X129945713Y-89591622D01*
X133560192Y-89083640D01*
X133915083Y-91608824D01*
X130300604Y-92116806D01*
X130300604Y-92116806D01*
G37*
G36*
X132246617Y-97700311D02*
X131891725Y-95175127D01*
X133228587Y-94987243D01*
X133583479Y-97512427D01*
X132246617Y-97700311D01*
X132246617Y-97700311D01*
G37*
D35*
X141478000Y-103632000D03*
D36*
X144018000Y-103632000D03*
D37*
X130655500Y-86081281D02*
X130655500Y-86081281D01*
D10*
G36*
X128947247Y-82545120D02*
X131322880Y-82211247D01*
X131656753Y-84586880D01*
X129281120Y-84920753D01*
X128947247Y-82545120D01*
X128947247Y-82545120D01*
G37*
D37*
X155635066Y-83604588D02*
X155635066Y-83604588D01*
D10*
G36*
X156166978Y-87495556D02*
X153804444Y-87078978D01*
X154221022Y-84716444D01*
X156583556Y-85133022D01*
X156166978Y-87495556D01*
X156166978Y-87495556D01*
G37*
M02*
